<?xml version="1.0" encoding="utf-8"?>
<!-- Generator: Adobe Illustrator 23.0.1, SVG Export Plug-In . SVG Version: 6.00 Build 0)  -->
<svg version="1.1" id="Layer_1" xmlns="http://www.w3.org/2000/svg" xmlns:xlink="http://www.w3.org/1999/xlink" x="0px" y="0px"
	 viewBox="0 0 118 32" style="enable-background:new 0 0 118 32;" xml:space="preserve">
<style type="text/css">
	.st0{fill:#19181E;}
	.st1{filter:url(#Adobe_OpacityMaskFilter);}
	.st2{fill-rule:evenodd;clip-rule:evenodd;fill:#FFFFFF;}
	.st3{mask:url(#b_1_);fill-rule:evenodd;clip-rule:evenodd;fill:#2490C3;}
	.st4{filter:url(#Adobe_OpacityMaskFilter_1_);}
	.st5{mask:url(#b_2_);fill-rule:evenodd;clip-rule:evenodd;fill:#173249;}
	.st6{fill-rule:evenodd;clip-rule:evenodd;fill:#173249;}
	.st7{fill-rule:evenodd;clip-rule:evenodd;fill:#81CAE0;}
	.st8{filter:url(#Adobe_OpacityMaskFilter_2_);}
	.st9{mask:url(#d_1_);fill-rule:evenodd;clip-rule:evenodd;fill:#3FABD1;}
	.st10{filter:url(#Adobe_OpacityMaskFilter_3_);}
	.st11{mask:url(#d_2_);fill-rule:evenodd;clip-rule:evenodd;fill:#53B6D8;}
	.st12{filter:url(#Adobe_OpacityMaskFilter_4_);}
	.st13{mask:url(#d_3_);fill-rule:evenodd;clip-rule:evenodd;fill:#3FABD1;}
	.st14{filter:url(#Adobe_OpacityMaskFilter_5_);}
	.st15{mask:url(#d_4_);fill-rule:evenodd;clip-rule:evenodd;fill:#2595C7;}
	.st16{filter:url(#Adobe_OpacityMaskFilter_6_);}
	.st17{mask:url(#d_5_);fill-rule:evenodd;clip-rule:evenodd;fill:#53B6D8;}
	.st18{fill-rule:evenodd;clip-rule:evenodd;fill:#0E1820;}
	.st19{filter:url(#Adobe_OpacityMaskFilter_7_);}
	.st20{mask:url(#f_1_);fill-rule:evenodd;clip-rule:evenodd;fill:#225162;}
	.st21{filter:url(#Adobe_OpacityMaskFilter_8_);}
	.st22{mask:url(#f_2_);fill-rule:evenodd;clip-rule:evenodd;fill:#0E1820;}
	.st23{fill-rule:evenodd;clip-rule:evenodd;fill:#19475D;}
	.st24{fill-rule:evenodd;clip-rule:evenodd;fill:#0C1214;}
	.st25{fill-rule:evenodd;clip-rule:evenodd;fill:#0E2029;}
</style>
<rect x="-22.6" y="-63.2" class="st0" width="157.9" height="157.9"/>
<title>1DFE00C2-0D77-492B-9D65-33311AFD7AC2</title>
<g>
	<g>
		<defs>
			<filter id="Adobe_OpacityMaskFilter" filterUnits="userSpaceOnUse" x="0" y="0" width="25.6" height="32">
				<feColorMatrix  type="matrix" values="1 0 0 0 0  0 1 0 0 0  0 0 1 0 0  0 0 0 1 0"/>
			</filter>
		</defs>
		<mask maskUnits="userSpaceOnUse" x="0" y="0" width="25.6" height="32" id="b_1_">
			<g class="st1">
				<path id="a_1_" class="st2" d="M25.6,32H0V0h25.6V32z"/>
			</g>
		</mask>
		<path class="st3" d="M25.6,10.7L12.8,0L0,10.7L6.4,16L0,21.3L12.8,32l12.8-10.7L19.2,16L25.6,10.7"/>
		<defs>
			<filter id="Adobe_OpacityMaskFilter_1_" filterUnits="userSpaceOnUse" x="0" y="16" width="12.8" height="5.3">
				<feColorMatrix  type="matrix" values="1 0 0 0 0  0 1 0 0 0  0 0 1 0 0  0 0 0 1 0"/>
			</filter>
		</defs>
		<mask maskUnits="userSpaceOnUse" x="0" y="16" width="12.8" height="5.3" id="b_2_">
			<g class="st4">
				<path id="a_2_" class="st2" d="M25.6,32H0V0h25.6V32z"/>
			</g>
		</mask>
		<path class="st5" d="M12.8,21.3L6.4,16L0,21.3H12.8"/>
	</g>
	<path class="st6" d="M12.8,10.7l6.4,5.3l6.4-5.3H12.8"/>
	<path class="st7" d="M19.2,5.3L12.8,0v10.7h12.8L19.2,5.3"/>
	<g>
		<defs>
			<filter id="Adobe_OpacityMaskFilter_2_" filterUnits="userSpaceOnUse" x="12.8" y="21.3" width="12.8" height="10.7">
				<feColorMatrix  type="matrix" values="1 0 0 0 0  0 1 0 0 0  0 0 1 0 0  0 0 0 1 0"/>
			</filter>
		</defs>
		<mask maskUnits="userSpaceOnUse" x="12.8" y="21.3" width="12.8" height="10.7" id="d_1_">
			<g class="st8">
				<path id="c_1_" class="st2" d="M25.6,32H0V0h25.6V32z"/>
			</g>
		</mask>
		<path class="st9" d="M12.8,21.3V32l12.8-10.7H12.8"/>
		<defs>
			<filter id="Adobe_OpacityMaskFilter_3_" filterUnits="userSpaceOnUse" x="0" y="21.3" width="12.8" height="10.7">
				<feColorMatrix  type="matrix" values="1 0 0 0 0  0 1 0 0 0  0 0 1 0 0  0 0 0 1 0"/>
			</filter>
		</defs>
		<mask maskUnits="userSpaceOnUse" x="0" y="21.3" width="12.8" height="10.7" id="d_2_">
			<g class="st10">
				<path id="c_2_" class="st2" d="M25.6,32H0V0h25.6V32z"/>
			</g>
		</mask>
		<path class="st11" d="M12.8,21.3H0L12.8,32V21.3"/>
		<defs>
			<filter id="Adobe_OpacityMaskFilter_4_" filterUnits="userSpaceOnUse" x="0" y="10.7" width="12.8" height="10.7">
				<feColorMatrix  type="matrix" values="1 0 0 0 0  0 1 0 0 0  0 0 1 0 0  0 0 0 1 0"/>
			</filter>
		</defs>
		<mask maskUnits="userSpaceOnUse" x="0" y="10.7" width="12.8" height="10.7" id="d_3_">
			<g class="st12">
				<path id="c_3_" class="st2" d="M25.6,32H0V0h25.6V32z"/>
			</g>
		</mask>
		<path class="st13" d="M12.8,10.7H0l12.8,10.7V10.7"/>
		<defs>
			<filter id="Adobe_OpacityMaskFilter_5_" filterUnits="userSpaceOnUse" x="12.8" y="10.7" width="12.8" height="10.7">
				<feColorMatrix  type="matrix" values="1 0 0 0 0  0 1 0 0 0  0 0 1 0 0  0 0 0 1 0"/>
			</filter>
		</defs>
		<mask maskUnits="userSpaceOnUse" x="12.8" y="10.7" width="12.8" height="10.7" id="d_4_">
			<g class="st14">
				<path id="c_4_" class="st2" d="M25.6,32H0V0h25.6V32z"/>
			</g>
		</mask>
		<path class="st15" d="M19.2,16l-6.4-5.3v10.7h12.8L19.2,16"/>
		<defs>
			<filter id="Adobe_OpacityMaskFilter_6_" filterUnits="userSpaceOnUse" x="0" y="0" width="12.8" height="10.7">
				<feColorMatrix  type="matrix" values="1 0 0 0 0  0 1 0 0 0  0 0 1 0 0  0 0 0 1 0"/>
			</filter>
		</defs>
		<mask maskUnits="userSpaceOnUse" x="0" y="0" width="12.8" height="10.7" id="d_5_">
			<g class="st16">
				<path id="c_5_" class="st2" d="M25.6,32H0V0h25.6V32z"/>
			</g>
		</mask>
		<path class="st17" d="M12.8,0L0,10.7h12.8V0"/>
	</g>
	<path class="st18" d="M15.4,11.7l-1-1.1h-1.6h12.8L15.4,11.7 M12.8,21.3l-1.4-1.2L12.8,21.3"/>
	<g transform="translate(0 20)">
		<defs>
			<filter id="Adobe_OpacityMaskFilter_7_" filterUnits="userSpaceOnUse" x="11.4" y="0.1" width="1.4" height="1.2">
				<feColorMatrix  type="matrix" values="1 0 0 0 0  0 1 0 0 0  0 0 1 0 0  0 0 0 1 0"/>
			</filter>
		</defs>
		<mask maskUnits="userSpaceOnUse" x="11.4" y="0.1" width="1.4" height="1.2" id="f_1_">
			<g class="st19">
				<path id="e_1_" class="st2" d="M0,0.1v1.2h12.8V0.1H0z"/>
			</g>
		</mask>
		<path class="st20" d="M12.8,1.3l-1.4-1.2L12.8,1.3"/>
		<defs>
			<filter id="Adobe_OpacityMaskFilter_8_" filterUnits="userSpaceOnUse" x="0" y="0.3" width="11.2" height="1.1">
				<feColorMatrix  type="matrix" values="1 0 0 0 0  0 1 0 0 0  0 0 1 0 0  0 0 0 1 0"/>
			</filter>
		</defs>
		<mask maskUnits="userSpaceOnUse" x="0" y="0.3" width="11.2" height="1.1" id="f_2_">
			<g class="st21">
				<path id="e_2_" class="st2" d="M0,0.1v1.2h12.8V0.1H0z"/>
			</g>
		</mask>
		<path class="st22" d="M11.2,1.3H0l10.2-1.1L11.2,1.3"/>
	</g>
	<path class="st18" d="M19.2,16l-5-4.1l0.8-0.1l0.3,0L19.2,16"/>
	<path class="st23" d="M19.2,16l-6.4-5.3L19.2,16"/>
	<path class="st24" d="M14.2,11.9l-1.4-1.2h1.6l1,1.1l-0.3,0L14.2,11.9"/>
	<path class="st25" d="M14.2,11.9l-1.4-1.2L14.2,11.9"/>
	<path class="st18" d="M10.2,20.3L6.4,16l5,4.1l-0.8,0.1L10.2,20.3"/>
	<path class="st24" d="M12.8,21.3h-1.6l-1-1.1l0.3,0l0.8-0.1L12.8,21.3"/>
	<path class="st2" d="M47,6.4l-3.2,3.4v9.9c0,0.8,0.2,1.3,0.5,1.7c0.6,0.6,1.6,0.8,3.1,0.8l1.5-0.1v-2.4c-0.1,0-0.2,0-0.3,0
		c-0.1,0-0.2,0-0.3,0c-0.7,0-1-0.1-1.2-0.2C47,19.4,47,19.1,47,18.6v-6.5h2V9.8h-2L47,6.4 M41.6,15.6c-0.4-0.3-0.8-0.5-1.3-0.6
		c-0.5-0.2-1-0.3-1.5-0.4c-0.5-0.1-1-0.2-1.4-0.3c-0.5-0.1-0.9-0.2-1.2-0.3c-0.4-0.1-0.7-0.3-0.9-0.5C35.1,13.3,35,13,35,12.7
		c0-0.3,0.1-0.5,0.2-0.6c0.1-0.2,0.3-0.3,0.5-0.4c0.2-0.1,0.4-0.1,0.6-0.2c0.2,0,0.4,0,0.6,0c0.6,0,1.1,0.1,1.6,0.4
		c0.5,0.2,0.7,0.7,0.7,1.4h3.3c-0.1-0.8-0.3-1.4-0.6-1.9c-0.3-0.5-0.7-0.9-1.2-1.2c-0.5-0.3-1.1-0.5-1.7-0.7c-0.6-0.1-1.3-0.2-2-0.2
		c-0.7,0-1.3,0.1-2,0.2c-0.6,0.1-1.2,0.3-1.7,0.6c-0.5,0.3-0.9,0.7-1.2,1.2s-0.5,1.2-0.5,2c0,0.6,0.1,1,0.3,1.4
		c0.2,0.4,0.5,0.7,0.9,0.9c0.4,0.3,0.8,0.5,1.3,0.6c0.5,0.2,1,0.3,1.5,0.4c1.2,0.3,2.2,0.5,2.9,0.8c0.7,0.3,1,0.6,1,1.2
		c0,0.3-0.1,0.6-0.2,0.8c-0.1,0.2-0.3,0.4-0.5,0.5C38.5,20,38.2,20,38,20.1c-0.3,0.1-0.5,0.1-0.8,0.1c-0.3,0-0.7,0-1-0.1
		c-0.3-0.1-0.6-0.2-0.8-0.4c-0.2-0.2-0.4-0.4-0.6-0.7c-0.2-0.3-0.2-0.6-0.2-1h-3.3c0,0.8,0.2,1.5,0.6,2.1c0.3,0.6,0.8,1,1.3,1.4
		c0.5,0.3,1.2,0.6,1.8,0.7c0.7,0.1,1.4,0.2,2.1,0.2c0.7,0,1.4-0.1,2.1-0.2c0.7-0.1,1.3-0.4,1.8-0.7c0.5-0.3,1-0.8,1.3-1.4
		c0.3-0.6,0.5-1.3,0.5-2.1c0-0.6-0.1-1.1-0.3-1.5C42.3,16.2,42,15.9,41.6,15.6 M65,17.2c0,1.1-0.3,1.8-0.9,2.2
		c-0.6,0.4-1.2,0.6-1.9,0.6c-0.4,0-0.8-0.1-1.1-0.4c-0.3-0.2-0.5-0.6-0.5-1.2c0-0.6,0.3-1.1,0.8-1.4c0.3-0.2,0.8-0.3,1.5-0.4
		l0.7-0.1c0.4-0.1,0.7-0.1,0.9-0.2c0.2-0.1,0.4-0.2,0.6-0.3C65,16,65,17.2,65,17.2z M68.4,21.2c-0.1-0.1-0.2-0.4-0.2-0.9
		c0-0.6,0-1,0-1.4v-5.6c0-1.5-0.5-2.5-1.6-3c-1.1-0.5-2.3-0.8-3.6-0.8c-2.1,0-3.5,0.5-4.4,1.6c-0.5,0.7-0.8,1.6-0.9,2.6h3.1
		c0.1-0.5,0.2-0.9,0.5-1.1c0.3-0.4,0.9-0.6,1.6-0.6c0.7,0,1.2,0.1,1.6,0.3c0.4,0.2,0.5,0.5,0.5,1c0,0.4-0.2,0.7-0.7,0.9
		c-0.3,0.1-0.7,0.2-1.3,0.3l-1.1,0.1c-1.3,0.2-2.2,0.4-2.8,0.8c-1.2,0.7-1.8,1.8-1.8,3.3c0,1.2,0.4,2.1,1.1,2.7c0.7,0.6,1.7,1,2.8,1
		c0.9,0,1.7-0.2,2.4-0.6c0.6-0.3,1.1-0.7,1.5-1.2c0,0.3,0.1,0.5,0.1,0.7c0,0.2,0.1,0.5,0.2,0.7h3.5v-0.5
		C68.6,21.4,68.5,21.3,68.4,21.2L68.4,21.2z M74.3,19.7c-0.1,0-0.2,0-0.2,0c-0.7,0-1-0.1-1.2-0.2c-0.1-0.1-0.2-0.4-0.2-0.9v-6.5h2
		V9.8h-2V6.4l-3,3.4v9.9c0,0.8,0.2,1.3,0.5,1.7c0.5,0.5,1.3,0.8,2.5,0.8c1.9,0,2.7-0.1,2.7-0.1l0,0C74.9,21.4,74.5,20.7,74.3,19.7
		 M83.1,17.2c0,1.1-0.3,1.8-0.9,2.2c-0.6,0.4-1.2,0.6-1.9,0.6c-0.4,0-0.8-0.1-1.1-0.4c-0.3-0.2-0.5-0.6-0.5-1.2
		c0-0.6,0.3-1.1,0.8-1.4c0.3-0.2,0.8-0.3,1.5-0.4l0.7-0.1c0.4-0.1,0.7-0.1,0.9-0.2c0.2-0.1,0.4-0.2,0.6-0.3L83.1,17.2L83.1,17.2z
		 M86.5,21.2c-0.1-0.1-0.2-0.4-0.2-0.9c0-0.6,0-1,0-1.4v-5.6c0-1.5-0.5-2.5-1.6-3c-1.1-0.5-2.3-0.8-3.6-0.8c-2.1,0-3.5,0.5-4.4,1.6
		c-0.5,0.7-0.8,1.6-0.9,2.6h3.1c0.1-0.5,0.2-0.9,0.5-1.1c0.3-0.4,0.9-0.6,1.6-0.6c0.7,0,1.2,0.1,1.6,0.3c0.4,0.2,0.5,0.5,0.5,1
		c0,0.4-0.2,0.7-0.7,0.9c-0.3,0.1-0.7,0.2-1.3,0.3L80,14.7c-1.3,0.2-2.2,0.4-2.8,0.8c-1.2,0.7-1.8,1.8-1.8,3.3
		c0,1.2,0.4,2.1,1.1,2.7c0.7,0.6,1.7,1,2.8,1c0.9,0,1.7-0.2,2.4-0.6c0.6-0.3,1.1-0.7,1.5-1.2c0,0.3,0.1,0.5,0.1,0.7
		c0,0.2,0.1,0.5,0.2,0.7H87v-0.5C86.8,21.4,86.6,21.3,86.5,21.2L86.5,21.2z M89.2,13.1c0-1.2,1-2.1,2.7-2.1c1.7,0,3,0.7,3.3,2.5h1.4
		c-0.3-2.7-2.1-3.8-4.7-3.8c-2.7,0-4.2,1.4-4.2,3.4c0,4.7,7.7,2.3,7.7,5.8c0,1.2-1,2.2-3,2.2c-2.1,0-3.2-0.8-3.6-2.8h-1.4
		c0.1,2.3,1.7,4.1,4.6,4.1c2.8,0,4.9-1.2,4.9-3.5C96.9,14.3,89.2,16.3,89.2,13.1 M109.3,13.1c0-1.2,1-2.1,2.7-2.1
		c1.7,0,3,0.7,3.3,2.5h1.4c-0.3-2.7-2-3.8-4.7-3.8c-2.7,0-4.2,1.4-4.2,3.4c0,4.7,7.7,2.3,7.7,5.8c0,1.2-1,2.2-3,2.2
		c-2.1,0-3.2-0.8-3.6-2.8h-1.4c0.1,2.3,1.7,4.1,4.6,4.1c2.8,0,4.9-1.2,4.9-3.5C117,14.3,109.3,16.3,109.3,13.1 M106.1,10.1
		l-3.9,10.4l-3.9-10.4h-1.6l4.7,12.1l0,0.1l-1.2,3.3h1.4l5.9-15.5L106.1,10.1 M57,9.5c-1,0-1.7,0.3-2.3,0.8
		c-0.4,0.3-0.8,0.8-1.3,1.7V9.8h-3.1V22h3.2v-5.9c0-1,0.1-1.7,0.4-2.2c0.4-0.8,1.3-1.3,2.6-1.3c0.1,0,0.2,0,0.4,0c0.1,0,0.2,0,0.4,0
		V9.5l-0.1,0C57.1,9.5,57,9.5,57,9.5 M117,11.1c-0.3,0-0.6-0.3-0.6-0.6s0.3-0.6,0.6-0.6c0.3,0,0.6,0.3,0.6,0.6S117.4,11.1,117,11.1
		L117,11.1z M117,9.7c-0.4,0-0.8,0.3-0.8,0.8c0,0.4,0.3,0.8,0.8,0.8s0.8-0.3,0.8-0.8C117.8,10.1,117.5,9.7,117,9.7L117,9.7z"/>
	<path class="st2" d="M117.1,10.5h-0.2v-0.2h0.2c0.1,0,0.1,0,0.1,0.1S117.2,10.5,117.1,10.5L117.1,10.5z M117.2,10.5
		c0.1,0,0.1-0.1,0.1-0.2c0-0.1-0.1-0.2-0.2-0.2h-0.4v0.7h0.2v-0.3h0.2c0.1,0,0.1,0,0.1,0.1c0,0.1,0,0.1,0,0.2h0.2c0,0,0-0.1,0-0.2
		C117.3,10.6,117.3,10.5,117.2,10.5L117.2,10.5z"/>
</g>
</svg>
