<svg clip-rule="evenodd" fill-rule="evenodd" stroke-linejoin="round" stroke-miterlimit="2" viewBox="0 0 560 400" xmlns="http://www.w3.org/2000/svg"><g transform="matrix(.709045 0 0 .703255 99.6263 151.164)"><path d="m110.871 46.456-55.172-45.978-55.172 45.978 27.586 22.987-27.586 22.987 55.172 45.978 55.172-45.978-27.586-22.987z" fill="#2490c3"/><path d="m55.699 92.429-27.586-22.987-27.586 22.987z" fill="#173249"/><path d="m55.7 46.456 27.586 22.987 27.586-22.987z" fill="#173249"/><path d="m83.286 23.465-27.586-22.987v45.978h55.172z" fill="#81cae0"/><path d="m55.7 92.43v45.978l55.172-45.978z" fill="#3fabd1"/><path d="m55.699 92.43h-55.172l55.172 45.978z" fill="#53b6d8"/><path d="m55.699 46.456h-55.172l55.172 45.974z" fill="#3fabd1"/><path d="m110.872 92.43-55.172-45.974v45.974z" fill="#2595c7"/><path d="m55.699.478-55.172 45.978h55.172z" fill="#53b6d8"/><path d="m66.733 51.051-4.138-4.595h-6.896 55.172zm-11.034 41.379-6.129-5.108z" fill="#0e1820"/><path d="m55.699 92.43-6.129-5.108z" fill="#225162"/><path d="m48.803 92.431h-48.276l44.138-4.595z" fill="#0e1820"/><path d="m83.285 69.442-21.453-17.88 3.651-.379 1.25-.129z" fill="#0e1820"/><path d="m83.286 69.443-27.586-22.987z" fill="#19475d"/><path d="m61.833 51.564-6.133-5.108h6.896l4.138 4.595-1.25.129-3.651.388" fill="#0c1214"/><path d="m61.833 51.564-6.133-5.108z" fill="#0e2029"/><path d="m44.664 87.835-16.552-18.393 21.457 17.88-3.651.379-1.25.129" fill="#0e1820"/><path d="m55.701 92.429h-6.897l-4.138-4.594 1.25-.13 3.655-.388z" fill="#0c1214"/><g fill="#2d2c36"><path d="m202.973 28.063-13.707 14.775v42.479c0 3.301.776 5.749 2.328 7.336 2.401 2.5 6.875 3.633 13.418 3.405l6.569-.246v-10.353c-.457.034-.918.06-1.388.073-.474.017-.914.026-1.336.026-2.819 0-4.504-.272-5.056-.806-.56-.535-.828-1.888-.828-4.052v-28.004h8.604v-9.858h-8.604zm-22.965 39.827c-1.595-1.155-3.414-2.082-5.457-2.785-2.043-.698-4.138-1.293-6.293-1.788-2.069-.492-4.116-.949-6.129-1.38-2.009-.413-3.793-.879-5.345-1.413-1.569-.518-2.832-1.207-3.802-2.048-.97-.84-1.457-1.927-1.457-3.258 0-1.113.276-2.009.837-2.673.551-.672 1.228-1.177 2.025-1.526.794-.353 1.681-.582 2.651-.681.974-.107 1.871-.159 2.703-.159 2.629 0 4.922.517 6.862 1.526 1.939 1.013 3.017 2.961 3.22 5.836h14.038c-.28-3.362-1.129-6.155-2.543-8.362-1.422-2.198-3.215-3.974-5.362-5.311-2.155-1.323-4.59-2.271-7.327-2.836-2.742-.56-5.561-.84-8.474-.84-2.91 0-5.75.267-8.526.789-2.772.517-5.267 1.435-7.483 2.737-2.22 1.301-4.008 3.068-5.358 5.31-1.349 2.241-2.025 5.116-2.025 8.621 0 2.387.487 4.396 1.456 6.043.97 1.65 2.25 3.017 3.845 4.094 1.595 1.095 3.414 1.974 5.461 2.63 2.043.672 4.138 1.25 6.293 1.741 5.259 1.121 9.367 2.241 12.315 3.362s4.422 2.802 4.422 5.043c0 1.336-.31 2.444-.935 3.319-.629.875-1.405 1.573-2.345 2.099-.935.53-1.974.914-3.116 1.164-1.147.237-2.241.358-3.276.358-1.457 0-2.858-.173-4.211-.517-1.354-.358-2.543-.897-3.586-1.638-1.043-.733-1.888-1.681-2.543-2.837-.664-1.155-.992-2.543-.992-4.146h-14.034c.138 3.642.948 6.668 2.444 9.086 1.491 2.414 3.392 4.362 5.715 5.836 2.328 1.474 4.979 2.522 7.957 3.147 2.983.646 6.035.948 9.151.948 3.043 0 6.043-.293 8.987-.892 2.948-.586 5.56-1.625 7.845-3.104 2.293-1.465 4.146-3.413 5.569-5.831 1.422-2.414 2.129-5.41 2.129-8.987 0-2.522-.474-4.643-1.448-6.358-.974-1.716-2.259-3.155-3.849-4.31zm100.517 6.832c-.1 4.633-1.423 7.823-3.975 9.569-2.551 1.754-5.344 2.629-8.362 2.629-1.913 0-3.534-.526-4.87-1.582-1.328-1.052-1.992-2.759-1.992-5.129 0-2.655 1.087-4.612 3.276-5.875 1.285-.746 3.405-1.379 6.362-1.897l3.147-.582c1.582-.293 2.823-.612 3.724-.948.905-.345 1.802-.789 2.69-1.336zm14.724 16.961c-.453-.647-.733-1.879-.819-3.694-.069-2.397-.104-4.44-.104-6.121v-24.31c0-6.379-2.263-10.72-6.784-13.017-4.526-2.306-9.698-3.448-15.517-3.448-8.957 0-15.272 2.327-18.949 6.995-2.31 2.974-3.612 6.785-3.905 11.423h13.371c.327-2.043.983-3.664 1.965-4.862 1.38-1.621 3.729-2.431 7.048-2.431 2.952 0 5.194.413 6.724 1.241 1.526.819 2.284 2.327 2.284 4.491 0 1.785-.991 3.095-2.982 3.94-1.112.483-2.957.892-5.535 1.215l-4.75.582c-5.388.681-9.465 1.811-12.241 3.405-5.056 2.914-7.586 7.63-7.586 14.138 0 5.026 1.569 8.905 4.715 11.638 3.147 2.742 7.129 4.112 11.953 4.112 3.776 0 7.168-.862 10.172-2.586 2.5-1.453 4.72-3.215 6.638-5.293.103 1.198.228 2.272.397 3.207.159.94.448 1.948.87 3.017h15.069v-2.043c-.905-.422-1.586-.957-2.043-1.603zm25.663-6.142c-.323.008-.646.017-.948.017-2.815 0-4.5-.272-5.043-.806-.56-.535-.832-1.888-.832-4.052v-28.004h8.603v-9.858h-8.603v-14.775l-13.103 14.775v42.479c0 3.301.776 5.749 2.327 7.336 2.155 2.241 5.509 3.375 10.897 3.422 8.31.198 11.465-.526 11.465-.526l.129-.009c-2.586-2.698-4.224-6.047-4.892-9.999zm37.819-10.819c-.099 4.633-1.422 7.823-3.966 9.569-2.556 1.754-5.344 2.629-8.37 2.629-1.91 0-3.535-.526-4.862-1.582-1.336-1.052-2-2.759-2-5.129 0-2.655 1.09-4.612 3.276-5.875 1.284-.746 3.405-1.379 6.366-1.897l3.147-.582c1.581-.293 2.823-.612 3.724-.948.905-.345 1.81-.789 2.689-1.336v5.151zm14.728 16.961c-.448-.647-.724-1.879-.819-3.694-.064-2.397-.099-4.44-.099-6.121v-24.31c0-6.379-2.263-10.72-6.784-13.017-4.526-2.306-9.698-3.448-15.517-3.448-8.957 0-15.272 2.327-18.949 6.995-2.31 2.974-3.612 6.785-3.905 11.423h13.371c.328-2.043.991-3.664 1.97-4.862 1.379-1.621 3.724-2.431 7.043-2.431 2.957 0 5.198.413 6.724 1.241 1.53.819 2.293 2.327 2.293 4.491 0 1.785-.991 3.095-2.987 3.94-1.112.483-2.957.892-5.534 1.215l-4.755.582c-5.388.681-9.465 1.811-12.241 3.405-5.056 2.914-7.586 7.63-7.586 14.138 0 5.026 1.569 8.905 4.715 11.638 3.147 2.742 7.134 4.112 11.957 4.112 3.78 0 7.172-.862 10.172-2.586 2.509-1.453 4.725-3.215 6.647-5.293.095 1.198.224 2.272.388 3.207.164.94.452 1.948.875 3.017h15.064v-2.043c-.905-.422-1.586-.957-2.043-1.603zm11.41-34.922c0-5.319 4.112-8.923 11.732-8.923 7.526 0 12.94 2.905 14.043 10.927h6.121c-1.509-11.733-8.836-16.349-20.064-16.349-11.531 0-18.25 6.22-18.25 14.845 0 20.456 33.288 9.827 33.288 24.87 0 5.013-4.107 9.629-12.836 9.629-9.026 0-13.642-3.31-15.543-12.241h-6.112c.5 9.828 7.517 17.655 19.754 17.655 12.242 0 21.164-5.215 21.164-15.142 0-19.957-33.297-11.129-33.297-25.267zm86.775 0c0-5.319 4.121-8.923 11.741-8.923 7.522 0 12.931 2.905 14.039 10.927h6.121c-1.5-11.733-8.824-16.349-20.056-16.349-11.53 0-18.254 6.22-18.254 14.845 0 20.456 33.297 9.827 33.297 24.87 0 5.013-4.108 9.629-12.836 9.629-9.03 0-13.642-3.31-15.552-12.241h-6.121c.505 9.828 7.526 17.655 19.763 17.655 12.242 0 21.164-5.215 21.164-15.142 0-19.957-33.302-11.129-33.302-25.267zm-13.905-12.94-16.655 44.629-16.638-44.629h-6.724l20.159 52.349.164.44-5.302 14.215h6.207l25.302-67h-6.509zm-211.675-2.539c-4.147 0-7.522 1.078-10.108 3.246-1.638 1.328-3.418 3.638-5.591 7.215v-9.198h-13.219v52.784h13.948v-25.232c0-4.224.534-7.362 1.603-9.397 1.91-3.612 5.655-5.422 11.224-5.422.423 0 .974.017 1.656.043.487.03 1.043.073 1.629.129v-14.112l-.487-.03c-.173-.017-.397-.026-.655-.026zm258.886 7.074c-1.496 0-2.621-1.147-2.621-2.664s1.121-2.664 2.617-2.664c1.491 0 2.616 1.147 2.616 2.664s-1.121 2.664-2.616 2.664zm0-5.962c-1.854 0-3.302 1.449-3.302 3.298 0 1.853 1.453 3.301 3.306 3.301 1.854 0 3.298-1.452 3.298-3.301 0-1.854-1.449-3.298-3.298-3.298z"/><path d="m505.201 45.545h-.737v-.862h.733c.301 0 .461.129.461.431s-.16.431-.457.431zm.642.237c.345-.142.487-.409.487-.767 0-.466-.344-.845-.896-.845h-1.651v3.052h.672v-1.19h.673c.332 0 .457.138.504.461.035.242.022.539.108.733h.672c-.12-.172-.12-.534-.129-.724-.026-.31-.116-.629-.448-.716z"/></g></g></svg>